<svg version="1.0" xmlns="http://www.w3.org/2000/svg" viewBox="0 0 558 488" preserveAspectRatio="xMidYMid meet">
<g transform="translate(0,488) scale(0.1,-0.1)" fill="#E21F26" stroke="none">
<path d="M3045 3119 c-30 -27 -35 -37 -35 -76 0 -38 5 -50 34 -79 27 -27 42 -34 73 -34 43 1 59 11 91 57 26 36 28 63 8 102 -35 67 -113 81 -171 30z"/>
<path d="M1142 2633 l3 -238 83 -3 c49 -2 89 2 97 8 9 8 13 63 14 222 0 117 -2 220 -5 230 -5 16 -18 18 -100 18 l-94 0 2 -237z"/>
<path d="M1380 2630 l0 -241 88 3 87 3 3 87 c2 74 6 88 21 93 41 13 50 -2 53 -93 l3 -87 88 -3 87 -3 2 168 c1 92 2 193 2 224 1 91 6 89 -230 89 l-204 0 0 -240z m233 109 c3 -12 0 -22 -9 -26 -19 -7 -44 15 -37 33 8 21 40 17 46 -7z"/>
<path d="M1886 2839 c-26 -30 -26 -31 -26 -215 0 -247 -12 -234 216 -234 205 0 220 6 230 87 3 29 5 118 2 199 -3 145 -3 146 -31 170 -27 23 -33 24 -197 24 l-168 0 -26 -31z m222 -217 c3 -107 2 -112 -18 -112 -19 0 -20 6 -20 108 0 60 3 112 7 116 20 20 28 -9 31 -112z"/>
<path d="M2352 2633 l3 -238 88 -3 87 -3 0 48 c0 46 17 89 26 68 2 -5 18 -34 35 -63 l30 -53 82 3 82 3 3 238 2 237 -95 0 -95 0 0 -30 c0 -16 -4 -30 -9 -30 -5 0 -19 14 -31 30 -21 30 -22 30 -116 30 l-94 0 2 -237z"/>
<path d="M2850 2635 l0 -235 23 -5 c13 -4 46 -5 73 -3 l49 3 3 45 c1 25 5 60 8 79 5 30 7 32 20 19 9 -8 30 -44 48 -79 29 -57 36 -64 65 -67 42 -4 52 5 90 83 45 91 61 84 61 -26 l0 -59 59 0 c98 0 91 -20 91 246 l0 234 -295 0 -295 0 0 -235z"/>
<path d="M3536 2828 c-9 -64 -23 -152 -42 -263 -9 -55 -17 -116 -18 -135 l-1 -35 85 0 85 0 6 39 c6 37 21 56 46 56 30 0 42 -15 49 -56 l6 -45 87 3 c97 3 90 -6 72 98 -6 30 -17 91 -26 135 -9 44 -18 94 -21 110 -2 17 -10 54 -16 83 l-11 52 -147 0 -147 0 -7 -42z"/>
<path d="M3974 2857 c-2 -7 -3 -114 -2 -237 l3 -225 90 0 90 0 3 53 c2 37 7 52 18 52 7 0 14 -4 14 -10 0 -5 12 -30 28 -55 l27 -46 80 3 80 3 3 238 2 237 -90 0 c-81 0 -90 -2 -90 -19 0 -10 -6 -24 -14 -30 -12 -10 -18 -6 -32 18 l-18 31 -93 0 c-67 0 -95 -4 -99 -13z"/>
</g>
</svg>
