<svg version="1.0" xmlns="http://www.w3.org/2000/svg"
 viewBox="0 0 374 488" preserveAspectRatio="xMidYMid meet">
<g transform="translate(0,488) scale(0.1,-0.1)" fill="#E4002B" stroke="none">
<path d="M1720 4774 c-205 -40 -371 -153 -474 -323 -47 -77 -64 -125 -86 -244
-17 -94 -17 -102 0 -200 10 -56 28 -128 40 -160 23 -60 92 -169 139 -221 76
-82 208 -157 337 -191 74 -19 230 -19 311 0 228 54 411 223 496 459 26 74 29
93 29 211 0 116 -3 138 -27 205 -39 107 -79 173 -153 252 -137 145 -274 206
-477 213 -60 2 -121 1 -135 -1z"/>
<path d="M600 3090 l-515 -5 -6 -55 c-11 -93 -10 -2793 1 -2810 8 -13 72 -15
480 -14 258 0 473 4 477 8 5 4 10 234 13 511 4 360 8 507 16 516 24 23 51 -1
89 -84 84 -179 135 -290 224 -482 50 -110 122 -258 159 -330 l67 -130 239 -3
c165 -2 243 1 252 9 7 6 45 70 83 142 38 73 86 164 107 202 165 309 262 494
300 573 46 95 63 113 89 92 13 -11 15 -83 15 -516 l0 -504 24 -6 c13 -3 213
-4 445 -2 362 3 423 5 431 18 6 9 10 557 10 1431 0 1280 -2 1418 -16 1430 -13
10 -245 13 -1242 13 -675 1 -1459 -1 -1742 -4z m1090 -285 c82 -8 159 -44 205
-97 82 -96 123 -290 112 -523 -9 -183 -59 -331 -132 -392 -108 -92 -314 -116
-448 -53 -142 67 -217 238 -217 498 0 165 17 288 50 359 35 77 99 147 163 179
47 24 142 44 182 38 11 -2 49 -6 85 -9z m1432 -23 c98 -48 148 -131 148 -249
0 -80 -10 -112 -52 -161 -15 -18 -28 -38 -28 -45 0 -7 21 -30 46 -51 70 -59
88 -107 82 -225 -8 -156 -66 -254 -181 -307 -59 -28 -69 -29 -202 -29 -180 0
-237 16 -305 84 -88 88 -129 205 -82 230 27 14 218 44 237 37 9 -3 27 -30 40
-60 27 -61 47 -76 98 -76 42 0 82 36 91 81 13 68 7 108 -22 140 -26 29 -35 32
-89 34 -34 2 -67 6 -73 10 -16 10 -8 179 10 200 7 8 30 18 52 21 101 17 124
174 25 174 -44 0 -70 -21 -96 -76 l-22 -46 -59 6 c-89 10 -192 39 -203 57 -14
23 52 154 102 203 66 64 113 77 286 73 133 -2 155 -5 197 -25z m-1990 1 c15
-13 18 -31 18 -98 0 -90 -4 -100 -104 -224 -134 -166 -213 -379 -241 -649 -10
-86 -20 -92 -162 -92 -128 0 -143 7 -143 71 0 39 51 257 89 377 18 58 106 226
154 295 14 21 16 32 9 39 -7 7 -82 13 -194 16 -101 2 -191 9 -200 14 -16 7
-18 24 -18 119 0 61 5 119 10 130 10 18 25 19 387 19 336 0 378 -2 395 -17z
m1276 -746 c7 -8 12 -70 13 -151 1 -108 -1 -140 -12 -147 -17 -10 -12 -10
-162 -11 -93 -1 -121 2 -128 13 -5 8 -9 73 -9 146 0 106 3 135 16 147 21 21
265 24 282 3z"/>
<path d="M1560 2552 c-41 -41 -55 -119 -54 -292 0 -162 17 -244 59 -286 50
-50 97 -22 132 79 26 76 26 359 0 432 -35 95 -84 119 -137 67z"/>
</g>
</svg>
