<svg version="1.0" xmlns="http://www.w3.org/2000/svg" viewBox="0 0 868 488" preserveAspectRatio="xMidYMid meet">
<g transform="translate(0,488) scale(0.1,-0.1)" fill="#E4002B" stroke="none">
<path d="M4630 3518 c-65 -39 -99 -153 -64 -220 15 -29 15 -32 -4 -51 -17 -16 -38 -21 -104 -25 -46 -2 -96 -11 -111 -19 -33 -17 -176 -58 -233 -68 -65 -10 -104 -56 -139 -162 -52 -159 -116 -317 -135 -328 -5 -3 -15 -15 -21 -27 -9 -18 -8 -19 10 -13 25 7 27 -3 6 -31 -20 -27 -19 -36 5 -29 16 5 20 2 20 -17 0 -22 1 -22 25 7 l24 30 1 -29 c0 -42 25 -18 39 39 13 53 25 56 46 15 14 -27 35 -41 35 -22 0 4 -9 45 -21 92 l-22 86 38 79 c21 44 53 104 71 133 l34 52 96 0 96 0 -4 -142 c-3 -123 -7 -150 -26 -193 -13 -27 -31 -59 -42 -70 -34 -38 -61 -102 -73 -181 -10 -60 -22 -93 -50 -136 -20 -31 -50 -87 -68 -124 -48 -104 -75 -138 -142 -181 -77 -50 -121 -92 -170 -163 -20 -30 -63 -83 -95 -117 -53 -56 -63 -62 -121 -74 -78 -16 -88 -32 -67 -97 52 -164 73 -204 118 -223 28 -11 98 -5 98 10 0 4 -13 20 -30 36 -36 35 -37 49 -5 109 14 26 25 58 25 71 0 13 14 40 30 59 47 53 311 263 354 281 55 23 294 267 347 354 10 17 24 31 31 31 7 0 54 -11 103 -25 50 -14 116 -25 148 -25 31 0 57 -3 57 -6 0 -3 -22 -31 -50 -62 -27 -31 -50 -61 -50 -67 0 -15 -58 -129 -92 -180 -14 -22 -56 -69 -92 -105 -36 -35 -66 -69 -66 -75 1 -5 8 -19 18 -30 20 -24 149 -125 158 -125 4 0 15 -7 25 -16 34 -31 139 -41 139 -14 0 5 -19 26 -41 47 -23 21 -48 52 -55 70 -16 37 -18 130 -5 167 6 13 84 101 176 195 91 94 170 182 175 196 6 15 7 37 4 51 -6 24 -102 114 -122 114 -6 0 -12 4 -14 9 -3 9 -208 114 -245 125 -13 4 -23 14 -23 21 0 8 32 77 70 153 39 76 70 144 70 151 0 28 34 1 103 -84 40 -49 80 -91 89 -93 14 -3 130 105 178 164 8 11 60 66 114 123 81 84 97 105 84 112 -10 6 -14 17 -11 30 5 19 4 20 -16 9 -21 -11 -22 -10 -12 9 16 28 14 33 -9 26 -11 -4 -20 -2 -20 4 0 24 -21 9 -37 -26 -20 -42 -53 -57 -53 -24 0 11 -4 23 -10 26 -6 4 -10 -14 -10 -47 0 -82 -15 -121 -60 -157 -22 -18 -55 -38 -74 -46 -43 -18 -47 -14 -117 125 -29 58 -58 108 -64 112 -15 11 -45 32 -62 44 -27 19 -5 36 37 29 l39 -7 24 54 c17 38 24 72 25 122 1 38 7 75 13 82 22 27 -16 77 -77 102 -67 27 -119 27 -164 0z"/>
</g>
</svg>
